<?xml version="1.0" encoding="UTF-8" standalone="no"?>
<svg
   xmlns:dc="http://purl.org/dc/elements/1.1/"
   xmlns:cc="http://creativecommons.org/ns#"
   xmlns:rdf="http://www.w3.org/1999/02/22-rdf-syntax-ns#"
   xmlns:svg="http://www.w3.org/2000/svg"
   xmlns="http://www.w3.org/2000/svg"
   xmlns:sodipodi="http://sodipodi.sourceforge.net/DTD/sodipodi-0.dtd"
   xmlns:inkscape="http://www.inkscape.org/namespaces/inkscape"
   fill="none"
   height="2352"
   viewBox=".115 -1769.98433048 945.09 4345.14520489"
   width="2500"
   version="1.1"
   id="svg70"
   sodipodi:docname="materialize.svg"
   inkscape:version="1.0.2-2 (e86c870879, 2021-01-15)">
  <metadata
     id="metadata76">
    <rdf:RDF>
      <cc:Work
         rdf:about="">
        <dc:format>image/svg+xml</dc:format>
        <dc:type
           rdf:resource="http://purl.org/dc/dcmitype/StillImage" />
        <dc:title></dc:title>
      </cc:Work>
    </rdf:RDF>
  </metadata>
  <defs
     id="defs74" />
  <sodipodi:namedview
     pagecolor="#ffffff"
     bordercolor="#666666"
     borderopacity="1"
     objecttolerance="10"
     gridtolerance="10"
     guidetolerance="10"
     inkscape:pageopacity="0"
     inkscape:pageshadow="2"
     inkscape:window-width="1225"
     inkscape:window-height="876"
     id="namedview72"
     showgrid="false"
     inkscape:zoom="0.37840136"
     inkscape:cx="1250"
     inkscape:cy="1176"
     inkscape:window-x="2361"
     inkscape:window-y="122"
     inkscape:window-maximized="0"
     inkscape:current-layer="svg70" />
  <g
     stroke-width="0"
     id="g68"
     transform="matrix(4.1046711,0,0,3.6775699,-1474.7771,-1419.3766)">
    <path
       d="m 233.486,231.885 c 3.422,-5.475 7.872,-10.735 14.264,-13.315 2.624,-0.428 5.248,-0.212 7.871,-0.212 h 129.177 c -3.765,3.004 -7.416,6.119 -9.925,10.197 -6.618,10.2 -11.071,21.579 -15.177,32.958 -11.64,34.358 -19.744,69.677 -27.619,104.999 a 2406.634,2406.634 0 0 0 -10.154,48.098 c -9.815,52.392 -19.97,104.672 -32.637,156.525 -6.046,23.943 -12.21,47.883 -21.566,70.964 -4.338,9.557 -8.558,19.754 -16.888,26.839 -1.94,1.613 -3.88,3.65 -6.622,3.33 H 130.099 c -7.76,-0.215 -15.406,0.428 -23.166,-0.323 5.137,-3.755 9.7,-8.267 12.668,-13.635 8.558,-15.352 13.92,-31.991 19.056,-48.526 7.99,-26.623 14.375,-53.57 20.428,-80.517 3.766,-17.713 8.215,-35.322 10.953,-53.143 3.082,-19.861 7.76,-39.507 11.526,-59.261 5.934,-29.096 12.209,-58.187 19.171,-87.067 5.591,-22.546 11.297,-44.987 18.942,-66.994 3.769,-10.627 7.871,-21.148 13.809,-30.917 z"
       fill="#eb7077"
       stroke="#eb7077"
       id="path58" />
    <path
       d="m 384.805,218.352 c 3.307,0 6.614,-0.108 9.925,0 7.302,3.65 13.466,9.445 16.888,16.638 4.564,8.16 8.333,16.75 11.751,25.553 11.415,33.173 19.175,67.313 26.935,101.345 a 4103.537,4103.537 0 0 1 18.828,91.792 c 0.458,1.61 -0.111,3.866 2.169,4.294 -8.219,40.366 -16.319,80.84 -26.588,120.887 -5.595,21.579 -11.529,43.05 -19.969,63.878 -4.568,10.412 -9.246,21.791 -18.946,29.203 -6.16,1.286 -10.613,-3.115 -14.375,-7.089 -6.504,-7.836 -10.502,-17.07 -14.382,-26.303 -12.897,-33.062 -20.768,-67.526 -28.753,-101.881 -6.05,-26.735 -11.415,-53.678 -17.006,-80.517 -2.513,-13.639 -5.931,-27.058 -7.871,-40.69 -0.344,-0.215 -1.146,-0.646 -1.486,-0.858 a 2399.736,2399.736 0 0 1 10.155,-48.099 c 7.875,-35.322 15.978,-70.643 27.619,-104.995 4.105,-11.383 8.558,-22.761 15.176,-32.958 2.513,-4.082 6.16,-7.197 9.926,-10.2 z"
       fill="#f6a2ad"
       stroke="#f6a2ad"
       id="path60" />
    <path
       d="m 527.548,236.929 c 4.113,-7.405 9.132,-15.672 18.034,-18.464 45.304,-0.215 90.609,-0.107 135.909,-0.107 -4.223,3.97 -8.673,7.944 -11.529,12.988 -8.784,14.817 -13.92,31.244 -19.168,47.455 -13.465,44.66 -22.936,90.286 -31.953,135.913 -8.329,44.987 -17.231,89.966 -27.386,134.738 -5.247,22.542 -10.727,44.979 -17.686,67.201 -4.452,13.743 -9.127,27.594 -16.433,40.37 -3.54,5.796 -7.649,12.134 -14.378,15.137 -43.25,0.324 -86.615,0 -129.861,0.105 -2.398,0 -4.907,0 -7.305,-0.32 9.7,-7.405 14.378,-18.788 18.945,-29.203 8.444,-20.825 14.375,-42.296 19.97,-63.875 10.269,-40.047 18.369,-80.517 26.588,-120.887 9.925,-52.069 20.313,-104.137 33.549,-155.563 6.16,-22.222 12.095,-44.767 22.708,-65.488 z"
       fill="#eb7077"
       stroke="#eb7077"
       id="path62" />
    <path
       d="m 681.486,218.352 c 3.65,0 7.416,-0.108 11.067,0 5.935,2.899 10.158,7.836 13.924,12.88 6.16,9.234 10.04,19.65 14.035,29.847 9.471,27.377 16.547,55.506 23.051,83.632 8.673,37.898 16.204,76.011 23.62,114.121 1.826,9.126 3.651,18.357 4.793,27.594 l 1.711,1.609 c -4.105,5.368 -5.705,11.81 -7.985,17.929 -7.191,21.795 -11.87,44.34 -15.864,66.778 -3.079,17.605 -7.302,35.106 -13.122,52.068 -4.335,12.561 -9.586,25.014 -18.255,35.534 -4.113,5.048 -9.704,8.911 -15.864,11.487 -9.471,0.966 -15.066,-7.621 -19.63,-13.955 -9.471,-15.568 -14.604,-32.958 -20.084,-49.923 -18.029,-62.805 -29.784,-127.111 -42.448,-190.989 a 2.718,2.718 0 0 0 -0.493,-1.321 2.944,2.944 0 0 0 -1.107,-0.935 c 9.017,-45.627 18.488,-91.253 31.954,-135.913 5.247,-16.211 10.383,-32.638 19.171,-47.455 2.853,-5.044 7.302,-9.018 11.526,-12.988 z M 0.115,462.591 c 2.971,-0.215 5.938,-0.643 9.017,-0.643 h 124.384 c 5.247,0.643 10.727,0.216 15.749,2.364 7.354,2.844 13.772,7.475 18.599,13.42 0.573,-0.323 1.6,-1.182 2.169,-1.613 -2.738,17.821 -7.187,35.426 -10.953,53.142 -6.049,26.947 -12.438,53.894 -20.428,80.518 -5.136,16.534 -10.498,33.173 -19.056,48.526 -2.968,5.367 -7.531,9.876 -12.668,13.635 -1.94,0.323 -3.422,-0.967 -5.022,-1.933 -5.362,-3.22 -8.444,-8.803 -11.751,-13.848 C 74.52,622.663 72.809,585.623 63.109,550.625 58.202,533.127 52.152,515.734 43.254,499.631 37.774,489.966 31.044,480.736 22.257,473.327 15.754,468.39 8.219,464.417 0.119,462.591 Z"
       fill="#f6a2ad"
       stroke="#f6a2ad"
       id="path64" />
    <path
       d="m 783.734,473.768 c 7.188,-7.624 17.915,-12.453 28.757,-12.025 h 93.573 c 13.007,0.216 26.13,-0.428 39.141,0.323 -3.88,2.469 -8.559,3.435 -12.668,5.476 -14.264,6.119 -26.473,16.315 -34.233,29.092 -12.439,20.4 -16.777,43.805 -20.428,66.778 -3.651,22.545 -3.536,45.842 -11.296,67.744 -5.248,15.352 -13.237,30.809 -27.046,40.902 -42.903,0.431 -85.813,0.107 -128.605,0.215 -2.852,0 -5.591,0.105 -8.329,-0.431 6.16,-2.573 11.751,-6.438 15.86,-11.486 8.673,-10.521 13.924,-22.974 18.259,-35.534 5.82,-16.966 10.044,-34.464 13.122,-52.069 3.995,-22.438 8.673,-44.987 15.864,-66.778 2.28,-6.118 3.88,-12.56 7.986,-17.928 3.425,-4.725 5.705,-10.201 10.043,-14.279 z"
       fill="#eb7077"
       stroke="#eb7077"
       id="path66" />
  </g>
</svg>
